<?xml version="1.0" encoding="UTF-8"?>
<svg id="_レイヤー_1" data-name="レイヤー 1" xmlns="http://www.w3.org/2000/svg" viewBox="0 0 453.37 536.92">
  <defs>
    <style>
      .cls-1 {
        fill: #fff;
      }

      .cls-2 {
        fill: #da1f20;
      }
    </style>
  </defs>
  <circle class="cls-2" cx="57.28" cy="57.28" r="57.28"/>
  <path d="M38.1,29.43h24.98c5.37.29,8.62,1.56,9.77,3.8,1.15,2.24,1.61,4.64,1.4,7.21-.21,2.56-2.12,5.82-5.73,9.77,5.61-.21,8.73,1.79,9.37,6.01v17.46c-.29,3.12-1.31,5.55-3.06,7.27-1.75,1.72-3.88,2.88-6.39,3.46-5.87,1.39-11.96.77-18.26-1.84l4-10.05c5.66,1.79,9.19,2.22,10.59,1.3s1.97-5.53,1.7-13.83l-15.13.08v9.85c-1.42,10.22-6.25,14.85-14.49,13.89v-10.13c2.48.03,3.52-2.08,3.12-6.33v-6.93h-3.2l.04-10.21,4.08.08v-9.49h-4.24l1.44-11.37ZM51.35,40.8v8.97l5.17-1.12c3.63-1.95,5.29-4.56,4.96-7.85h-10.13Z"/>
  <circle class="cls-2" cx="221.77" cy="58.18" r="57.28"/>
  <path class="cls-1" d="M202.59,30.33h24.98c5.37.29,8.62,1.56,9.77,3.8,1.15,2.24,1.61,4.64,1.4,7.21-.21,2.56-2.12,5.82-5.73,9.77,5.61-.21,8.73,1.79,9.37,6.01v17.46c-.29,3.12-1.31,5.55-3.06,7.27-1.75,1.72-3.88,2.88-6.39,3.46-5.87,1.39-11.96.77-18.26-1.84l4-10.05c5.66,1.79,9.19,2.22,10.59,1.3s1.97-5.53,1.7-13.83l-15.13.08v9.85c-1.42,10.22-6.25,14.85-14.49,13.89v-10.13c2.48.03,3.52-2.08,3.12-6.33v-6.93h-3.2l.04-10.21,4.08.08v-9.49h-4.24l1.44-11.37ZM215.84,41.7v8.97l5.17-1.12c3.63-1.95,5.29-4.56,4.96-7.85h-10.13Z"/>
  <circle cx="394.38" cy="62.66" r="57.28"/>
  <path class="cls-1" d="M375.2,34.81h24.98c5.37.29,8.62,1.56,9.77,3.8,1.15,2.24,1.61,4.64,1.4,7.21-.21,2.56-2.12,5.82-5.73,9.77,5.61-.21,8.73,1.79,9.37,6.01v17.46c-.29,3.12-1.31,5.55-3.06,7.27-1.75,1.72-3.88,2.88-6.39,3.46-5.87,1.39-11.96.77-18.26-1.84l4-10.05c5.66,1.79,9.19,2.22,10.59,1.3s1.97-5.53,1.7-13.83l-15.13.08v9.85c-1.42,10.22-6.25,14.85-14.49,13.89v-10.13c2.48.03,3.52-2.08,3.12-6.33v-6.93h-3.2l.04-10.21,4.08.08v-9.49h-4.24l1.44-11.37ZM388.45,46.18v8.97l5.17-1.12c3.63-1.95,5.29-4.56,4.96-7.85h-10.13Z"/>
  <circle class="cls-2" cx="57.36" cy="211.28" r="57.28"/>
  <path d="M79.84,222.83c-.04,1.57-.38,2.97-1.01,4.2-.63,1.23-1.49,2.31-2.58,3.25-1.1.94-2.38,1.74-3.85,2.41s-3.06,1.21-4.79,1.62c-1.72.41-3.53.71-5.42.91-1.89.2-3.81.3-5.74.3-1.51,0-3.01-.05-4.5-.16-1.49-.11-2.95-.26-4.37-.47-1.43-.21-2.79-.46-4.08-.76-1.3-.29-2.51-.63-3.64-1l.51-1.02c-.66.23-1.33.46-2.01.67-.68.21-1.36.44-2.04.7,1.15-3.47,2.14-6.94,2.97-10.41.83-3.47,1.48-6.98,1.95-10.55-1.38-.87-2.62-1.78-3.7-2.74-1.08-.96-1.99-1.89-2.71-2.78,1.08.33,2.19.63,3.32.91,1.13.28,2.29.55,3.48.81.06-1.12.12-2.23.18-3.32.05-1.09.08-2.2.08-3.32v-.56c-1.19.42-2.35.87-3.48,1.34-1.13.47-2.23.96-3.32,1.48.32-1.2.56-2.33.73-3.41.17-1.08.26-2.13.26-3.16,0-1.62-.19-3.18-.57-4.69s-.94-2.92-1.66-4.24c2.28-.35,4.33-.64,6.17-.88,1.84-.23,3.55-.42,5.12-.56,1.57-.14,3.05-.23,4.44-.28,1.38-.05,2.77-.07,4.15-.07,1.17,0,2.49.03,3.97.09,1.48.06,3.02.18,4.61.35,1.6.18,3.19.45,4.79.81,1.6.36,3.1.84,4.52,1.44,1.41.6,2.69,1.34,3.81,2.23,1.13.89,2.02,1.97,2.68,3.23l2.62-1.58c.06.49.11,1,.14,1.53s.05,1.03.05,1.49c0,1.48-.18,2.92-.54,4.32-.36,1.41-.87,2.76-1.53,4.06-.66,1.3-1.45,2.54-2.36,3.71-.91,1.17-1.93,2.25-3.03,3.23,1.06.61,1.96,1.29,2.7,2.04.73.75,1.34,1.52,1.82,2.32.48.8.85,1.58,1.1,2.34.26.76.44,1.45.56,2.06.12.61.19,1.11.21,1.49.02.39.03.59.03.62ZM60.38,197.77c-.87,0-1.73.04-2.57.11-.84.07-1.71.16-2.6.28-.06,1.88-.11,3.74-.14,5.61-.03,1.86-.07,3.71-.11,5.54,2.28-.47,4.12-1.45,5.52-2.95,1.4-1.5,2.29-3.73,2.65-6.68l2.74-.46c-.81-.47-1.67-.83-2.57-1.07-.9-.25-1.88-.37-2.92-.37ZM58.27,217.95c-1.13,0-2.23-.07-3.32-.21,0,.98.01,1.94.03,2.87.02.93.05,1.86.1,2.79.85.3,1.65.5,2.39.6.74.09,1.45.14,2.11.14.91,0,1.88-.12,2.89-.35,1.01-.23,1.94-.62,2.78-1.14.84-.53,1.53-1.22,2.07-2.09.54-.87.81-1.93.81-3.2,0-.47-.06-1.04-.19-1.72-1.51.75-3.08,1.32-4.71,1.72-1.63.4-3.28.6-4.96.6Z"/>
  <circle class="cls-2" cx="222.81" cy="215.65" r="57.28"/>
  <path class="cls-1" d="M245.29,227.2c-.04,1.57-.38,2.97-1.01,4.2-.63,1.23-1.49,2.31-2.58,3.25-1.1.94-2.38,1.74-3.85,2.41s-3.06,1.21-4.79,1.62c-1.72.41-3.53.71-5.42.91-1.89.2-3.81.3-5.74.3-1.51,0-3.01-.05-4.5-.16-1.49-.11-2.95-.26-4.37-.47-1.43-.21-2.79-.46-4.08-.76-1.3-.29-2.51-.63-3.64-1l.51-1.02c-.66.23-1.33.46-2.01.67-.68.21-1.36.44-2.04.7,1.15-3.47,2.14-6.94,2.97-10.41.83-3.47,1.48-6.98,1.95-10.55-1.38-.87-2.62-1.78-3.7-2.74-1.08-.96-1.99-1.89-2.71-2.78,1.08.33,2.19.63,3.32.91,1.13.28,2.29.55,3.48.81.06-1.12.12-2.23.18-3.32.05-1.09.08-2.2.08-3.32v-.56c-1.19.42-2.35.87-3.48,1.34-1.13.47-2.23.96-3.32,1.48.32-1.2.56-2.33.73-3.41.17-1.08.26-2.13.26-3.16,0-1.62-.19-3.18-.57-4.69s-.94-2.92-1.66-4.24c2.28-.35,4.33-.64,6.17-.88,1.84-.23,3.55-.42,5.12-.56,1.57-.14,3.05-.23,4.44-.28,1.38-.05,2.77-.07,4.15-.07,1.17,0,2.49.03,3.97.09,1.48.06,3.02.18,4.61.35,1.6.18,3.19.45,4.79.81,1.6.36,3.1.84,4.52,1.44,1.41.6,2.69,1.34,3.81,2.23,1.13.89,2.02,1.97,2.68,3.23l2.62-1.58c.06.49.11,1,.14,1.53s.05,1.03.05,1.49c0,1.48-.18,2.92-.54,4.32-.36,1.41-.87,2.76-1.53,4.06-.66,1.3-1.45,2.54-2.36,3.71-.91,1.17-1.93,2.25-3.03,3.23,1.06.61,1.96,1.29,2.7,2.04.73.75,1.34,1.52,1.82,2.32.48.8.85,1.58,1.1,2.34.26.76.44,1.45.56,2.06.12.61.19,1.11.21,1.49.02.39.03.59.03.62ZM225.82,202.14c-.87,0-1.73.04-2.57.11-.84.07-1.71.16-2.6.28-.06,1.88-.11,3.74-.14,5.61-.03,1.86-.07,3.71-.11,5.54,2.28-.47,4.12-1.45,5.52-2.95,1.4-1.5,2.29-3.73,2.65-6.68l2.74-.46c-.81-.47-1.67-.83-2.57-1.07-.9-.25-1.88-.37-2.92-.37ZM223.72,222.32c-1.13,0-2.23-.07-3.32-.21,0,.98.01,1.94.03,2.87.02.93.05,1.86.1,2.79.85.3,1.65.5,2.39.6.74.09,1.45.14,2.11.14.91,0,1.88-.12,2.89-.35,1.01-.23,1.94-.62,2.78-1.14.84-.53,1.53-1.22,2.07-2.09.54-.87.81-1.93.81-3.2,0-.47-.06-1.04-.19-1.72-1.51.75-3.08,1.32-4.71,1.72-1.63.4-3.28.6-4.96.6Z"/>
  <circle cx="396.09" cy="221.57" r="57.28"/>
  <path class="cls-1" d="M418.57,233.12c-.04,1.57-.38,2.97-1.01,4.2-.63,1.23-1.49,2.31-2.58,3.25-1.1.94-2.38,1.74-3.85,2.41s-3.06,1.21-4.79,1.62c-1.72.41-3.53.71-5.42.91-1.89.2-3.81.3-5.74.3-1.51,0-3.01-.05-4.5-.16-1.49-.11-2.95-.26-4.37-.47-1.43-.21-2.79-.46-4.08-.76-1.3-.29-2.51-.63-3.64-1l.51-1.02c-.66.23-1.33.46-2.01.67-.68.21-1.36.44-2.04.7,1.15-3.47,2.14-6.94,2.97-10.41.83-3.47,1.48-6.98,1.95-10.55-1.38-.87-2.62-1.78-3.7-2.74-1.08-.96-1.99-1.89-2.71-2.78,1.08.33,2.19.63,3.32.91,1.13.28,2.29.55,3.48.81.06-1.12.12-2.23.18-3.32.05-1.09.08-2.2.08-3.32v-.56c-1.19.42-2.35.87-3.48,1.34-1.13.47-2.23.96-3.32,1.48.32-1.2.56-2.33.73-3.41.17-1.08.26-2.13.26-3.16,0-1.62-.19-3.18-.57-4.69s-.94-2.92-1.66-4.24c2.28-.35,4.33-.64,6.17-.88,1.84-.23,3.55-.42,5.12-.56,1.57-.14,3.05-.23,4.44-.28,1.38-.05,2.77-.07,4.15-.07,1.17,0,2.49.03,3.97.09,1.48.06,3.02.18,4.61.35,1.6.18,3.19.45,4.79.81,1.6.36,3.1.84,4.52,1.44,1.41.6,2.69,1.34,3.81,2.23,1.13.89,2.02,1.97,2.68,3.23l2.62-1.58c.06.49.11,1,.14,1.53s.05,1.03.05,1.49c0,1.48-.18,2.92-.54,4.32-.36,1.41-.87,2.76-1.53,4.06-.66,1.3-1.45,2.54-2.36,3.71-.91,1.17-1.93,2.25-3.03,3.23,1.06.61,1.96,1.29,2.7,2.04.73.75,1.34,1.52,1.82,2.32.48.8.85,1.58,1.1,2.34.26.76.44,1.45.56,2.06.12.61.19,1.11.21,1.49.02.39.03.59.03.62ZM399.11,208.05c-.87,0-1.73.04-2.57.11-.84.07-1.71.16-2.6.28-.06,1.88-.11,3.74-.14,5.61-.03,1.86-.07,3.71-.11,5.54,2.28-.47,4.12-1.45,5.52-2.95,1.4-1.5,2.29-3.73,2.65-6.68l2.74-.46c-.81-.47-1.67-.83-2.57-1.07-.9-.25-1.88-.37-2.92-.37ZM397,228.23c-1.13,0-2.23-.07-3.32-.21,0,.98.01,1.94.03,2.87.02.93.05,1.86.1,2.79.85.3,1.65.5,2.39.6.74.09,1.45.14,2.11.14.91,0,1.88-.12,2.89-.35,1.01-.23,1.94-.62,2.78-1.14.84-.53,1.53-1.22,2.07-2.09.54-.87.81-1.93.81-3.2,0-.47-.06-1.04-.19-1.72-1.51.75-3.08,1.32-4.71,1.72-1.63.4-3.28.6-4.96.6Z"/>
  <path d="M30.47,319.6h38.72c8.31.46,13.36,2.42,15.14,5.89,1.78,3.47,2.5,7.2,2.17,11.17-.33,3.97-3.29,9.02-8.87,15.14,8.69-.33,13.53,2.77,14.52,9.31v27.05c-.46,4.84-2.04,8.59-4.75,11.26-2.71,2.67-6.01,4.46-9.9,5.37-9.1,2.15-18.53,1.2-28.3-2.85l6.21-15.57c8.77,2.77,14.24,3.44,16.41,2.02s3.05-8.57,2.64-21.44l-23.46.12v15.26c-2.19,15.84-9.68,23.02-22.46,21.53v-15.7c3.85.04,5.46-3.23,4.84-9.8v-10.73h-4.96l.06-15.82,6.33.12v-14.71h-6.58l2.23-17.62ZM51.01,337.22v13.9l8-1.74c5.63-3.02,8.19-7.07,7.69-12.16h-15.7Z"/>
  <path class="cls-2" d="M194.18,319.93h38.72c8.31.46,13.36,2.42,15.14,5.89,1.78,3.47,2.5,7.2,2.17,11.17-.33,3.97-3.29,9.02-8.87,15.14,8.69-.33,13.53,2.77,14.52,9.31v27.05c-.46,4.84-2.04,8.59-4.75,11.26-2.71,2.67-6.01,4.46-9.9,5.37-9.1,2.15-18.53,1.2-28.3-2.85l6.21-15.57c8.77,2.77,14.24,3.44,16.41,2.02s3.05-8.57,2.64-21.44l-23.46.12v15.26c-2.19,15.84-9.68,23.02-22.46,21.53v-15.7c3.85.04,5.46-3.23,4.84-9.8v-10.73h-4.96l.06-15.82,6.33.12v-14.71h-6.58l2.23-17.62ZM214.72,337.55v13.9l8-1.74c5.63-3.02,8.19-7.07,7.69-12.16h-15.7Z"/>
  <path d="M94.96,517.32c-.07,2.42-.58,4.58-1.55,6.48-.97,1.9-2.3,3.57-3.99,5.02-1.69,1.45-3.67,2.68-5.93,3.71s-4.73,1.86-7.38,2.49c-2.66.63-5.45,1.1-8.37,1.41-2.92.31-5.87.46-8.86.46-2.33,0-4.64-.08-6.94-.24-2.3-.16-4.55-.41-6.74-.73-2.2-.33-4.3-.71-6.3-1.17-2-.45-3.87-.97-5.61-1.55l.79-1.57c-1.02.36-2.05.7-3.1,1.03-1.05.33-2.1.69-3.15,1.08,1.77-5.35,3.3-10.7,4.58-16.05,1.28-5.35,2.28-10.77,3-16.27-2.13-1.34-4.04-2.75-5.71-4.23-1.67-1.48-3.07-2.91-4.18-4.28,1.67.51,3.38.98,5.12,1.41,1.74.43,3.53.85,5.36,1.25.1-1.74.19-3.44.27-5.12.08-1.68.12-3.39.12-5.12v-.87c-1.84.65-3.63,1.34-5.36,2.06-1.74.72-3.45,1.48-5.12,2.28.49-1.84.87-3.6,1.13-5.26.26-1.66.39-3.29.39-4.88,0-2.49-.3-4.91-.89-7.24s-1.44-4.51-2.56-6.53c3.51-.54,6.69-.99,9.52-1.36,2.84-.36,5.47-.65,7.9-.87,2.43-.22,4.71-.36,6.84-.43,2.13-.07,4.26-.11,6.4-.11,1.8,0,3.85.05,6.13.14,2.28.09,4.65.27,7.11.54,2.46.27,4.92.69,7.38,1.25,2.46.56,4.78,1.3,6.96,2.22,2.18.92,4.14,2.07,5.88,3.44,1.74,1.37,3.12,3.04,4.13,4.99l4.04-2.44c.1.76.17,1.55.22,2.36s.07,1.58.07,2.3c0,2.28-.28,4.5-.84,6.67-.56,2.17-1.35,4.26-2.36,6.26-1.02,2.01-2.23,3.91-3.64,5.72-1.41,1.81-2.97,3.47-4.68,4.99,1.64.94,3.03,1.99,4.16,3.15,1.13,1.16,2.07,2.35,2.81,3.58.74,1.23,1.3,2.43,1.7,3.61.39,1.17.68,2.23.86,3.17.18.94.29,1.71.32,2.3.03.6.05.91.05.95ZM64.94,478.65c-1.35,0-2.67.05-3.96.16-1.3.11-2.63.25-4.01.43-.1,2.89-.17,5.77-.22,8.65-.05,2.87-.11,5.72-.17,8.54,3.51-.72,6.35-2.24,8.51-4.55,2.17-2.31,3.53-5.75,4.08-10.3l4.23-.7c-1.25-.72-2.57-1.27-3.96-1.65-1.39-.38-2.9-.57-4.5-.57ZM61.69,509.78c-1.74,0-3.44-.11-5.12-.33,0,1.52.02,2.99.05,4.42.03,1.43.08,2.87.15,4.31,1.31.47,2.54.78,3.69.92,1.15.14,2.23.22,3.25.22,1.41,0,2.89-.18,4.45-.54,1.56-.36,2.99-.95,4.28-1.76,1.3-.81,2.36-1.89,3.2-3.23.84-1.34,1.26-2.98,1.26-4.93,0-.72-.1-1.61-.3-2.66-2.33,1.16-4.75,2.04-7.26,2.66-2.51.62-5.06.92-7.65.92Z"/>
  <path class="cls-2" d="M257.59,517.34c-.07,2.42-.58,4.58-1.55,6.48-.97,1.9-2.3,3.57-3.99,5.02-1.69,1.45-3.67,2.68-5.93,3.71s-4.73,1.86-7.38,2.49c-2.66.63-5.45,1.1-8.37,1.41-2.92.31-5.87.46-8.86.46-2.33,0-4.64-.08-6.94-.24-2.3-.16-4.55-.41-6.74-.73-2.2-.33-4.3-.71-6.3-1.17-2-.45-3.87-.97-5.61-1.55l.79-1.57c-1.02.36-2.05.7-3.1,1.03-1.05.33-2.1.69-3.15,1.08,1.77-5.35,3.3-10.7,4.58-16.05,1.28-5.35,2.28-10.77,3-16.27-2.13-1.34-4.04-2.75-5.71-4.23-1.67-1.48-3.07-2.91-4.18-4.28,1.67.51,3.38.98,5.12,1.41,1.74.43,3.53.85,5.36,1.25.1-1.74.19-3.44.27-5.12.08-1.68.12-3.39.12-5.12v-.87c-1.84.65-3.63,1.34-5.36,2.06-1.74.72-3.45,1.48-5.12,2.28.49-1.84.87-3.6,1.13-5.26.26-1.66.39-3.29.39-4.88,0-2.49-.3-4.91-.89-7.24s-1.44-4.51-2.56-6.53c3.51-.54,6.69-.99,9.52-1.36,2.84-.36,5.47-.65,7.9-.87,2.43-.22,4.71-.36,6.84-.43,2.13-.07,4.26-.11,6.4-.11,1.8,0,3.85.05,6.13.14,2.28.09,4.65.27,7.11.54,2.46.27,4.92.69,7.38,1.25,2.46.56,4.78,1.3,6.96,2.22,2.18.92,4.14,2.07,5.88,3.44,1.74,1.37,3.12,3.04,4.13,4.99l4.04-2.44c.1.76.17,1.55.22,2.36s.07,1.58.07,2.3c0,2.28-.28,4.5-.84,6.67-.56,2.17-1.35,4.26-2.36,6.26-1.02,2.01-2.23,3.91-3.64,5.72-1.41,1.81-2.97,3.47-4.68,4.99,1.64.94,3.03,1.99,4.16,3.15,1.13,1.16,2.07,2.35,2.81,3.58.74,1.23,1.3,2.43,1.7,3.61.39,1.17.68,2.23.86,3.17.18.94.29,1.71.32,2.3.03.6.05.91.05.95ZM227.57,478.68c-1.35,0-2.67.05-3.96.16-1.3.11-2.63.25-4.01.43-.1,2.89-.17,5.77-.22,8.65-.05,2.87-.11,5.72-.17,8.54,3.51-.72,6.35-2.24,8.51-4.55,2.17-2.31,3.53-5.75,4.08-10.3l4.23-.7c-1.25-.72-2.57-1.27-3.96-1.65-1.39-.38-2.9-.57-4.5-.57ZM224.32,509.81c-1.74,0-3.44-.11-5.12-.33,0,1.52.02,2.99.05,4.42.03,1.43.08,2.87.15,4.31,1.31.47,2.54.78,3.69.92,1.15.14,2.23.22,3.25.22,1.41,0,2.89-.18,4.45-.54,1.56-.36,2.99-.95,4.28-1.76,1.3-.81,2.36-1.89,3.2-3.23.84-1.34,1.26-2.98,1.26-4.93,0-.72-.1-1.61-.3-2.66-2.33,1.16-4.75,2.04-7.26,2.66-2.51.62-5.06.92-7.65.92Z"/>
</svg>