<?xml version="1.0" encoding="UTF-8"?>
<svg id="_レイヤー_1" xmlns="http://www.w3.org/2000/svg" version="1.1" viewBox="0 0 833.4 800.4">
  <!-- Generator: Adobe Illustrator 29.8.1, SVG Export Plug-In . SVG Version: 2.1.1 Build 2)  -->
  <defs>
    <style>
      .st0 {
        fill: none;
      }

      .st1 {
        fill: #790a0a;
      }

      .st2 {
        stroke-width: 2px;
      }

      .st2, .st3 {
        stroke: #fff;
      }

      .st2, .st3, .st4 {
        stroke-miterlimit: 10;
      }

      .st5, .st3 {
        fill: #fff;
      }

      .st4 {
        stroke: #000;
      }
    </style>
  </defs>
  <rect class="st1" x=".6" y="31.4" width="832.8" height="203.6"/>
  <g>
    <path class="st2" d="M124.8,145.9c0,2.5-.6,4.8-1.6,6.8-1,2-2.4,3.8-4.1,5.3-1.7,1.5-3.8,2.8-6.1,3.9-2.3,1.1-4.9,2-7.6,2.6-2.7.7-5.6,1.2-8.6,1.5-3,.3-6.1.5-9.1.5s-4.8,0-7.2-.3-4.7-.4-6.9-.8-4.4-.7-6.5-1.2c-2.1-.5-4-1-5.8-1.6l1.1-2.1c-1,.3-2.1.6-3.2,1-1.1.4-2.1.7-3.2,1.1,1.8-5.5,3.4-11,4.8-16.6,1.3-5.5,2.3-11.1,3-16.8-2.2-1.4-4.2-2.9-5.9-4.4s-3.2-3-4.3-4.4c1.7.5,3.4,1,5.3,1.4,1.8.4,3.7.8,5.6,1.2.2-1.9.3-3.8.3-5.6,0-1.8.1-3.7.1-5.6v-1.5c-1.9.6-3.7,1.3-5.5,2-1.8.7-3.6,1.5-5.3,2.3.5-1.7.8-3.4,1.1-5,.2-1.6.4-3.2.4-4.8,0-2.7-.3-5.2-1-7.7-.7-2.5-1.6-4.8-2.8-7.1,3.5-.5,6.8-1,9.7-1.3,2.9-.3,5.6-.6,8.1-.8,2.5-.2,4.9-.4,7.1-.5s4.5-.1,6.7-.1,4,0,6.4.1,4.9.3,7.4.6c2.6.3,5.1.8,7.7,1.3,2.6.6,5,1.4,7.2,2.4,2.3,1,4.3,2.3,6.1,3.7,1.8,1.5,3.2,3.3,4.2,5.3.6-.4,1.3-.8,2-1.3s1.4-1,2-1.5c.2.8.2,1.7.3,2.5s0,1.6,0,2.4c0,2.4-.3,4.7-.8,7-.6,2.3-1.4,4.5-2.4,6.6s-2.3,4.1-3.7,6c-1.4,1.9-3,3.7-4.8,5.3,1.7,1,3.1,2.1,4.2,3.3,1.1,1.2,2.1,2.5,2.8,3.8.8,1.3,1.3,2.6,1.7,3.9.4,1.2.7,2.4.8,3.4s.3,1.8.3,2.5c0,.6,0,1,0,1.1h0ZM84.6,106c0,3-.2,6-.2,9s0,6-.2,9c2.2-.3,4.2-.9,5.9-1.6s3.3-1.8,4.6-3.1c1.3-1.3,2.4-2.9,3.2-4.7.8-1.9,1.4-4.1,1.7-6.7l4.1-.7c-1.3-.8-2.8-1.3-4.4-1.7-1.6-.4-3.4-.6-5.3-.6s-1.5,0-2.1,0c-.6,0-1.2,0-1.9.2-.7,0-1.4.2-2.2.3s-1.9.3-3.1.5h-.1,0ZM90.7,137.8c-2.3,0-4.4-.2-6.5-.6,0,1.6,0,3.2,0,4.8,0,1.6,0,3.1.1,4.7,1.6.5,3,.8,4.4,1,1.4.2,2.8.2,4,.2s3.3-.2,5-.6,3.4-1,4.9-1.9c1.5-.9,2.7-2,3.7-3.4,1-1.4,1.4-3.2,1.4-5.2s0-1.1-.1-1.7-.2-1.2-.4-1.8c-2.6,1.4-5.3,2.5-8.1,3.3-2.8.8-5.6,1.2-8.5,1.2h0Z"/>
    <path class="st2" d="M211.2,93.8c0,10.7-1,20.2-3,28.6-2,8.3-4.9,15.4-8.9,21.1-3.9,5.7-8.8,10.1-14.6,13.1s-12.5,4.5-20.1,4.5-3.9-.1-5.9-.4c-2.1-.3-4.2-.7-6.4-1.3.4-.3.9-.6,1.4-.9.4-.3.9-.7,1.5-1.1s1.1-.9,1.7-1.5c-3.6-1.2-6.7-3.2-9.5-6-2.7-2.8-5-6.2-6.9-10.3s-3.2-8.6-4.2-13.8c-.9-5.1-1.4-10.6-1.4-16.5s0-2.6,0-3.8.1-2.3.2-3.4.2-2.3.4-3.6c.1-1.2.4-2.6.6-4.2,3.1.3,6.3.4,9.6.3,1.4,0,2.9-.1,4.5-.2s3.2-.3,4.9-.6,3.4-.6,5.1-1.1c1.7-.4,3.4-1,5-1.6-1.3,3.2-2.4,6.1-3.4,8.8-.9,2.7-1.7,5.2-2.4,7.6-.6,2.4-1.1,4.7-1.4,6.9-.3,2.2-.5,4.5-.5,6.7,0,4.4.6,8.5,1.7,12.2s2.9,7.1,5.3,10.1c.1-.5.3-1.1.4-1.6s.2-1.2.3-1.8c.8.2,1.6.4,2.4.5s1.6.1,2.3.1c2.2,0,4.2-.4,5.9-1.2s3.3-1.9,4.6-3.3c1.3-1.4,2.4-3,3.3-4.8.9-1.8,1.6-3.7,2.2-5.7.6-2,1-4,1.2-6,.2-2,.4-3.9.4-5.7s-.2-3.3-.6-5.2c-.4-2-.9-4-1.5-6.2s-1.3-4.3-2.1-6.5-1.7-4.3-2.6-6.4c1.2.4,2.6.8,4.1,1.1,1.5.3,3.1.6,4.8.8,1.7.2,3.4.4,5.1.5s3.5.2,5.2.2,4.3-.1,6.2-.4c1.9-.2,3.6-.7,5-1.3v3.3h0Z"/>
    <path class="st2" d="M291.3,126.5c0,.7.1,1.3.2,2,0,.6,0,1.3,0,1.9,0,3.2-.5,6.2-1.5,9-1,2.8-2.4,5.4-4.1,7.8-1.7,2.4-3.8,4.5-6.2,6.3-2.4,1.9-5,3.4-7.7,4.7-2.8,1.3-5.7,2.3-8.7,3-3,.7-6.1,1-9.2,1s-5.6-.1-8.3-.4-5.2-.4-7.6-.4-3.6.1-5.2.4c-1.6.3-3.1.8-4.5,1.6-1.1-4.2-2.3-8-3.6-11.4-1.3-3.4-2.4-6.3-3.5-8.7-1.2-2.8-2.5-5.3-3.8-7.6,3.6,1.9,7.3,3.4,10.9,4.5s7.1,1.9,10.4,2.6,6.3,1,9,1.2c2.7.2,5,.2,6.8.2s4.1-.1,6.1-.4c2-.2,4.1-.6,6.2-1.2-.5-.7-1.1-1.3-1.6-1.9s-1.1-1-1.5-1.3c-.5-.4-1.1-.7-1.6-1-.9-.4-2.1-.8-3.6-1.3s-3.2-.9-5.1-1.3-3.8-1-5.9-1.6c-2.1-.6-4.2-1.2-6.2-2-2.1-.8-4-1.6-5.9-2.6s-3.6-2.1-5-3.3c-1.2-1-2.1-2.1-2.9-3.3-.8-1.2-1.4-2.4-1.8-3.6s-.8-2.5-1-3.7c-.2-1.2-.3-2.4-.3-3.6-1.1.4-2,.8-2.9,1.2-.9.4-1.6.7-2.2,1l-1.8.9c1.1-3.3,2.6-6.2,4.6-8.8,2-2.5,4.2-4.7,6.7-6.6,2.5-1.9,5.1-3.4,7.9-4.7s5.6-2.3,8.3-3.2c6.4-1.9,13.4-3,20.9-3.3,2.3,0,4.8,0,7.4-.3,2.3-.2,4.9-.4,7.8-.7s6-.8,9.2-1.4c-1,1.5-1.8,3.1-2.4,4.8-.6,1.7-1.1,3.4-1.4,5.2-.3,1.7-.6,3.5-.7,5.2-.1,1.7-.2,3.2-.2,4.7s0,1.8,0,2.6c0,.8,0,1.4.1,2,0,.6.1,1.2.2,1.7-5.4-2.4-10.6-4.1-15.6-5.1s-10-1.4-14.7-1.4-3.2,0-4.6.2-2.9.2-4.4.4c.3,1.5.9,2.7,1.8,3.7.9,1,1.8,1.8,2.6,2.4,1,.7,2.2,1.2,3.4,1.7,2.3.7,4.8,1.6,7.6,2.7,2.7,1.1,5.5,2.4,8.2,3.9s5.3,3.4,7.9,5.5,4.7,4.6,6.6,7.3c1.2-1,2.3-2.1,3.4-3.2,1.1-1.2,2.1-2.5,3.1-3.8h0Z"/>
    <path class="st2" d="M326.6,159.6c-2.5-.6-5-1.1-7.3-1.3s-4.8-.4-7.2-.4-4.7.2-7.1.4c-2.4.3-4.9.7-7.5,1.3,2.6-6.7,4.6-13.4,6.1-20.3,1.4-6.9,2.1-13.9,2.1-21.2s-.3-8.8-.8-13.3c-.5-4.4-1.4-9-2.5-13.7,2,.6,4,1.1,5.9,1.6s3.9.9,5.9,1.2c2,.3,4,.6,6,.8,2,.2,4.2.3,6.4.3.2,5,.3,9.9.4,14.7s.2,9.8.2,14.7c3-.3,6-.6,8.9-1,2.9-.4,5.8-.8,8.8-1.3.4-5.6,1-11.2,1.8-16.9.8-5.6,2-11.3,3.4-17.1,1.7.7,3.4,1.4,5.1,1.9,1.6.5,3.3,1,5,1.3,1.7.3,3.4.6,5.2.8,1.8.2,3.8.2,5.8.2s.9,0,1.3,0,.9,0,1.4,0c-2,4.2-3.7,8.5-5,12.8-1.4,4.3-2.3,8.7-2.9,13.1,1.6-.3,3.1-.7,4.7-1.1,1.6-.4,3.2-.8,4.8-1.3-.3,2.2-.6,4.4-.7,6.5s-.2,4.2-.2,6.4,0,4.3.2,6.5c.1,2.2.4,4.4.7,6.5-1.6,0-3.3-.1-4.8-.2s-3.1-.2-4.7-.4c.4,2.8.9,5.7,1.5,8.5.6,2.8,1.4,5.7,2.4,8.6-1.1,0-2.2-.2-3.2-.2s-2,0-3,0c-1.6,0-3.2,0-4.7.2s-3,.3-4.5.6-3,.6-4.4,1c-1.5.4-3,.8-4.6,1.4-.4-4-.6-7.9-.8-11.8s-.3-7.9-.3-11.9c-2.9-.8-5.8-1.6-8.7-2.6-2.9-.9-5.7-1.9-8.5-3,0,4.6-.1,9.2-.2,13.8s-.2,9.2-.4,13.9h0Z"/>
    <path class="st2" d="M411.7,89.4c-1,6.4-1.7,12.9-2.2,19.4-.5,6.5-.8,13.1-.8,19.8s.1,10,.4,14.9.7,9.8,1.4,14.6c-1.3,0-2.5-.2-3.8-.2-1.2,0-2.4-.1-3.6-.1-2.9,0-5.7.2-8.5.5-2.8.3-5.8.8-8.9,1.5,1-5.4,1.8-10.9,2.3-16.5s.9-11.3.9-17.1-.2-9.9-.7-14.8-1.2-9.8-2.2-14.6c2.2-.3,4.3-.6,6.4-1.1,2.1-.4,4.1-1,6.2-1.6s4.2-1.3,6.3-2.1c2.1-.8,4.4-1.7,6.7-2.6h0Z"/>
    <path class="st2" d="M534.3,135.2c-.4,2.9-1,5.6-1.8,7.9-.8,2.3-1.8,4.4-3,6.2,0,1,0,2,0,3.1,0,1.1,0,2.1,0,3.2,0,1.1,0,2.1.1,3.1s.1,1.8.2,2.6l-10.6,1.6-1.9-3.5c-2.8,1.2-5.6,2-8.5,2.4s-5.6.7-8.2.7c-5.5,0-10.5-.8-15-2.3-4.6-1.6-8.6-3.9-12.1-7s-6.4-7-8.7-11.7c-2.3-4.7-4-10.2-5-16.4.7.2,1.5.5,2.2.7.8.2,1.6.4,2.4.6.5-6.2,2.2-11.7,4.9-16.4,2.7-4.7,6.2-8.6,10.5-11.8s9.3-5.5,14.9-7.2c5.6-1.6,11.7-2.4,18.2-2.4s6.1.2,9.5.5c3.4.3,7,.8,10.9,1.5-.9,2.8-1.5,5.6-2,8.4-.4,2.8-.7,5.6-.7,8.4s.2,5.8.7,8.7c-1.8-1.3-3.6-2.5-5.4-3.4s-3.6-1.6-5.3-2.2-3.4-.9-5.1-1.2-3.2-.3-4.7-.3c-2.9,0-5.8.4-8.7,1.2-3,.8-5.8,1.9-8.4,3.4-2.6,1.5-5,3.3-7.1,5.5s-3.7,4.6-4.8,7.4c1.2-.2,2.5-.4,3.6-.7,1.1-.3,2.3-.6,3.4-.9-.2,1.3-.3,2.6-.3,3.8,0,3.1.5,5.7,1.6,8,1,2.3,2.5,4.1,4.3,5.6,1.8,1.5,4,2.6,6.5,3.3,2.5.7,5.2,1.1,8.1,1.1h1.5c.5,0,1,0,1.5,0-1.2-3.4-2.2-6.9-3-10.3s-1.5-7.2-2.1-11.1c1.5.3,2.9.5,4.3.6,1.4.2,2.8.2,4.2.2,3,0,5.9-.3,8.7-1s5.7-1.6,8.7-2.8c-1.5,5.8-2.4,11.4-2.9,16.9.8-.5,1.5-1.1,2.2-1.7s1.5-1.2,2.3-1.9h0Z"/>
    <path class="st2" d="M571.7,157.7c-2.5,0-5,0-7.5,0-2.5,0-4.9,0-7.3.1-2.4,0-4.8.3-7.2.6-2.4.3-4.8.8-7.1,1.4,2.1-7.1,3.7-14.1,4.8-21.1,1.1-7,1.6-14,1.6-21.1s-.1-6.4-.3-9.6c-.2-3.2-.6-6.4-1.1-9.6l-7.1-.9c1.1-.3,2.2-.7,3.3-1,1.1-.3,2.2-.6,3.3-.9-.2-.9-.3-1.7-.4-2.5s-.3-1.7-.5-2.6c1.8.5,3.7,1.1,5.5,1.6,1.8.5,3.7.9,5.5,1.2,5.9-1.2,11.8-2.2,17.7-2.8s11.9-1,17.9-1,5.2,0,7.8.2,5.2.3,7.9.5c-1.5,5.6-2.2,11.4-2.2,17.4s0,4.4.3,6.5c-11.6-4.9-23.5-8.8-35.8-11.6-.3,2.7-.5,5.4-.7,8.1-.2,2.7-.3,5.4-.4,8.1,3.1-.7,6.2-1.2,9.3-1.6s6.2-.6,9.3-.6c-.7,2.9-1.1,5.7-1.1,8.5s0,2.3.2,3.4c.1,1.1.3,2.3.5,3.4-3-1.4-6-2.7-9-3.9-3.1-1.1-6.2-2.1-9.3-3,0,3.2,0,6.6.2,10.1.1,3.5.4,6.9.7,10.5,11.8-1.6,23.8-4.5,36.1-8.8-.4,2.3-.7,4.6-.9,6.8s-.3,4.5-.3,6.8,0,4.2.3,6.2.5,4.1.9,6.2c-5.8-1.5-11.6-2.7-17.3-3.8s-11.7-1.9-17.6-2.5c0,.2,0,.4,0,.6,0,.2,0,.4.1.6h0Z"/>
    <path class="st2" d="M695.5,136.2c-1.4.8-2.8,1.6-4.3,2.2s-2.9,1.4-4.4,2c1.6,3.2,3.3,6.3,5,9.2,1.8,2.9,3.7,5.8,5.7,8.7-5.1,0-10,.5-14.6,1.5-4.6,1-9.1,2.6-13.6,4.9.2-.8.4-1.7.5-2.6s.1-1.9.1-3c0-1.8-.2-3.9-.5-6.1s-.9-4.5-1.5-7c-1.6.2-3.2.4-4.8.6-1.6.1-3.2.2-4.8.2-2.7,0-5.3-.2-7.8-.6s-5-1.1-7.4-2c-.5,2.8-1.1,5.7-1.6,8.6-.5,2.9-1,5.9-1.4,8.9-1.6-.9-3.3-1.6-5.2-2.3-1.7-.6-3.6-1.1-5.9-1.6-2.3-.5-4.8-.7-7.6-.7s-4.5.2-7,.6-5,1.1-7.6,2.1c2.4-2.6,4.6-5.2,6.7-7.9,2.1-2.7,3.9-5.2,5.6-7.7,1.7-2.5,3.2-4.8,4.5-6.9s2.4-4,3.3-5.6c-.9-1.2-1.7-2.5-2.5-3.9-.8-1.4-1.5-2.9-2.2-4.5,1.2.7,2.5,1.3,3.7,1.9,1.2.6,2.5,1.1,3.7,1.6h0c1.7-3.5,3.4-6.8,5.2-10,1.8-3.2,3.8-6.4,5.8-9.4-.4-1-1-2.2-1.6-3.5-.6-1.3-1.3-2.7-2-4.1-.7-1.4-1.5-2.9-2.3-4.3-.8-1.4-1.6-2.8-2.4-4.1,3,.9,6.1,1.5,9.3,2.1,3.2.5,6.4.9,9.8,1,1.8-1.7,3.6-3.3,5.5-4.7s3.9-2.7,6-3.9c-.7,1.4-1.5,2.8-2.2,4.2-.7,1.4-1.4,2.8-2.1,4.3,1.8,0,3.6-.3,5.4-.5,1.8-.2,3.6-.5,5.4-.9,1.3,5.2,2.8,10.4,4.3,15.4,1.6,5,3.3,9.9,5.2,14.8,1.6-.9,3.1-1.8,4.5-2.9,1.5-1,3-2.1,4.5-3.2,1,3.6,2,7,3.2,10.2s2.6,6.1,4.1,8.9h0ZM662.3,130c-2.7-6.6-6-13.3-9.8-20.2-1.2,3.3-2.3,6.8-3.3,10.3-1,3.5-2.1,7.2-3,11,.8,0,1.6.1,2.4.1.8,0,1.6,0,2.4,0,1.9,0,3.8,0,5.7-.3,1.9-.2,3.8-.5,5.7-.9Z"/>
    <path class="st2" d="M782.3,154.8c-4.9.4-9.6,1.3-14.2,2.7-4.6,1.4-9.1,3.3-13.5,5.7-.3-3.9-1-7.7-1.9-11.4s-2.2-7.3-3.7-10.8c-3,.9-6.2,1.3-9.4,1.3s-3.1,0-4.6-.3c0,3,.1,5.9.2,8.9,0,2.9.2,5.9.4,8.9-.9,0-1.7-.2-2.6-.2-.9,0-1.8-.1-2.8-.1-3.5,0-7.2.4-11.1,1.2s-8,2-12.3,3.5c1.7-5.1,3.2-10.1,4.4-15.2s2.2-10.2,3-15.4c-2.4-1.7-4.5-3.3-6.1-5s-2.9-3-3.7-4.1c1.7.5,3.4,1,5.2,1.4s3.6.8,5.4,1.2c.2-2.3.4-4.6.5-6.8.1-2.3.2-4.6.2-6.9v-2.7c-1.9.6-3.7,1.3-5.5,2-1.8.7-3.6,1.5-5.3,2.3.5-1.7.8-3.4,1.1-5,.2-1.6.4-3.2.4-4.8,0-2.7-.3-5.2-1-7.7-.7-2.5-1.6-4.8-2.8-7.1,7.1-1.1,13.5-1.8,19.2-2.2s10.7-.6,15.2-.6,4.4,0,7.1.2,5.4.3,8.2.7,5.6.9,8.3,1.7,5.3,1.8,7.6,3,4.3,2.9,5.9,4.8,2.7,4.2,3.3,6.9v.2c.8-.5,1.6-.9,2.3-1.4s1.5-1.1,2.3-1.7c-.4,2.8-1.1,5.6-2.1,8.3-1,2.8-2.1,5.4-3.6,8-1.4,2.6-3.1,5-4.9,7.3-1.8,2.3-3.9,4.4-6.1,6.4,4.7,8.3,10.4,15.9,17.2,22.8h0ZM747.8,105.1c-1.6,0-3.4,0-5.4.2s-4.2.4-6.8.7c-.2,3.7-.3,7.3-.4,11,0,3.6-.1,7.3-.1,10.9,2.4-.3,4.6-.8,6.7-1.6,2.1-.7,3.9-1.7,5.5-3,1.6-1.3,2.9-2.9,4-4.8s1.7-4.1,2-6.7c1.3-.2,2.6-.5,3.9-.7,1.3-.2,2.6-.5,4-.7h0c-.7-.9-1.4-1.7-2.2-2.4-.8-.7-1.7-1.2-2.7-1.7-1-.4-2.2-.8-3.6-1s-3-.3-5-.3h0Z"/>
  </g>
  <path class="st5" d="M23.5,194.9c252.8-3.9,509.6-4,762.5-1l24.6.4v.2l-24.6.4c-252.7,3.1-510.2,4.2-762.5,0h0Z"/>
  <rect y="331.6" width="832.8" height="203.6"/>
  <g>
    <path class="st3" d="M124.3,440.8c0,2.5-.6,4.8-1.6,6.8-1,2-2.4,3.8-4.1,5.3-1.7,1.5-3.8,2.8-6.1,3.9s-4.9,2-7.6,2.6c-2.7.7-5.6,1.2-8.6,1.5-3,.3-6.1.5-9.1.5s-4.8,0-7.2-.3-4.7-.4-6.9-.8-4.4-.7-6.5-1.2c-2.1-.5-4-1-5.8-1.6l1.1-2.1c-1,.3-2.1.6-3.2,1-1.1.4-2.1.7-3.2,1.1,1.8-5.5,3.4-11,4.8-16.5,1.3-5.5,2.3-11.1,3-16.8-2.2-1.4-4.2-2.9-5.9-4.4s-3.2-3-4.3-4.5c1.7.5,3.4,1,5.3,1.5,1.8.4,3.7.8,5.6,1.2.1-1.9.3-3.8.3-5.6,0-1.8.1-3.7.1-5.5v-1.5c-1.9.6-3.7,1.3-5.5,2s-3.6,1.5-5.3,2.3c.5-1.7.8-3.4,1.1-5,.2-1.6.4-3.2.4-4.8,0-2.7-.3-5.2-1-7.7s-1.6-4.8-2.8-7.1c3.5-.5,6.8-1,9.7-1.4,2.9-.4,5.6-.6,8.1-.9,2.5-.2,4.9-.4,7.1-.5s4.5-.1,6.7-.1,4,0,6.4.1,4.9.3,7.4.6,5.1.8,7.7,1.3c2.6.6,5,1.4,7.2,2.4,2.3,1,4.3,2.3,6.1,3.7,1.8,1.5,3.2,3.3,4.2,5.4.6-.4,1.3-.8,2-1.3s1.4-1,2-1.5c.2.8.2,1.6.3,2.5s0,1.6,0,2.4c0,2.4-.3,4.7-.8,7-.6,2.3-1.4,4.5-2.4,6.6s-2.3,4.1-3.7,6c-1.4,1.9-3,3.7-4.8,5.3,1.7,1,3.1,2.1,4.2,3.3,1.1,1.2,2.1,2.5,2.8,3.8.8,1.3,1.3,2.6,1.7,3.9.4,1.2.7,2.4.8,3.4.2,1,.3,1.8.3,2.5,0,.6,0,1,0,1.1h0ZM84,400.9c0,3-.2,6-.2,9s0,6-.2,9c2.2-.3,4.2-.9,5.9-1.6s3.3-1.8,4.6-3c1.3-1.3,2.4-2.9,3.2-4.7.8-1.9,1.4-4.1,1.7-6.7l4.1-.7c-1.3-.8-2.8-1.3-4.4-1.7-1.6-.4-3.4-.5-5.3-.5s-1.5,0-2.1,0-1.2,0-1.9.2c-.7,0-1.4.2-2.2.3s-1.9.3-3.1.5h-.1,0ZM90.2,432.7c-2.3,0-4.4-.2-6.5-.6,0,1.6,0,3.2,0,4.8,0,1.6,0,3.1.1,4.7,1.6.5,3,.8,4.4,1,1.4.2,2.8.2,4,.2s3.3-.2,5-.6,3.4-1,4.9-1.9c1.5-.9,2.7-2,3.7-3.4s1.4-3.1,1.4-5.2,0-1.1-.1-1.6-.2-1.2-.4-1.8c-2.6,1.4-5.3,2.5-8.1,3.3s-5.6,1.1-8.5,1.1h0Z"/>
    <path class="st3" d="M210.7,388.7c0,10.7-1,20.2-3,28.6-2,8.3-4.9,15.4-8.9,21.1-3.9,5.7-8.8,10.1-14.6,13.1s-12.5,4.5-20.1,4.5-3.9-.1-5.9-.4-4.2-.7-6.4-1.3c.4-.3.9-.6,1.4-.9.4-.3.9-.7,1.5-1.1s1.1-.9,1.7-1.5c-3.6-1.2-6.7-3.2-9.5-6-2.7-2.8-5-6.2-6.9-10.3s-3.2-8.6-4.2-13.8c-.9-5.1-1.4-10.6-1.4-16.5s0-2.6,0-3.8.1-2.3.2-3.4.2-2.3.4-3.6.4-2.6.6-4.2c3.1.3,6.3.4,9.6.3,1.4,0,2.9-.1,4.5-.2,1.6-.1,3.2-.3,4.9-.6s3.4-.6,5.1-1.1c1.7-.4,3.4-1,5-1.6-1.3,3.2-2.4,6.1-3.4,8.8-.9,2.7-1.7,5.2-2.4,7.6-.6,2.4-1.1,4.7-1.4,6.9-.3,2.2-.5,4.5-.5,6.7,0,4.4.6,8.5,1.7,12.2s2.9,7.1,5.3,10c.1-.5.3-1.1.4-1.6s.2-1.1.3-1.8c.8.2,1.6.4,2.4.5s1.6.1,2.3.1c2.2,0,4.2-.4,5.9-1.2s3.3-1.9,4.6-3.4,2.4-3,3.3-4.8c.9-1.8,1.6-3.7,2.2-5.7.6-2,1-4,1.2-6,.2-2,.4-3.9.4-5.7s-.2-3.3-.6-5.2-.9-4-1.5-6.1c-.6-2.1-1.3-4.3-2.1-6.5s-1.7-4.4-2.6-6.4c1.2.4,2.6.8,4.1,1.1s3.1.6,4.8.9c1.7.2,3.4.4,5.1.5s3.5.2,5.2.2,4.3-.1,6.2-.4,3.6-.7,5-1.3v3.4h0Z"/>
    <path class="st3" d="M290.7,421.3c0,.7.1,1.3.2,2,0,.6,0,1.3,0,1.9,0,3.2-.5,6.2-1.5,9-1,2.8-2.4,5.4-4.1,7.8s-3.8,4.5-6.2,6.3c-2.4,1.9-5,3.4-7.7,4.7s-5.7,2.3-8.7,3c-3,.7-6.1,1-9.2,1s-5.6-.1-8.3-.4-5.2-.4-7.6-.4-3.6.1-5.2.4c-1.6.3-3.1.8-4.5,1.6-1.1-4.2-2.3-8-3.6-11.4-1.3-3.4-2.4-6.3-3.5-8.7-1.2-2.8-2.5-5.3-3.8-7.6,3.6,1.9,7.3,3.4,10.9,4.5s7.1,2,10.4,2.5,6.3,1,9,1.1c2.7.2,5,.2,6.8.2s4.1-.1,6.1-.4,4.1-.6,6.2-1.1c-.5-.7-1.1-1.3-1.6-1.9s-1.1-1-1.5-1.3c-.5-.4-1.1-.7-1.6-1-.9-.4-2.1-.9-3.6-1.3s-3.2-.9-5.1-1.4c-1.9-.5-3.8-1-5.9-1.6-2.1-.6-4.2-1.2-6.2-2s-4-1.6-5.9-2.6-3.6-2.1-5-3.4c-1.2-1-2.1-2.1-2.9-3.3-.8-1.2-1.4-2.4-1.8-3.6s-.8-2.5-1-3.7c-.2-1.2-.3-2.4-.3-3.6-1.1.4-2,.8-2.9,1.2-.9.4-1.6.7-2.2,1l-1.8.9c1.1-3.3,2.6-6.2,4.6-8.8s4.2-4.7,6.7-6.6c2.5-1.9,5.1-3.4,7.9-4.7s5.6-2.3,8.3-3.2c6.4-1.9,13.4-3,20.9-3.3,2.3,0,4.8,0,7.4-.3,2.3-.1,4.9-.4,7.8-.7,2.9-.3,6-.8,9.2-1.4-1,1.5-1.8,3.1-2.4,4.8s-1.1,3.4-1.4,5.2c-.3,1.7-.6,3.5-.7,5.2s-.2,3.2-.2,4.7,0,1.8,0,2.6,0,1.4.1,2c0,.6.1,1.2.2,1.7-5.4-2.4-10.6-4.1-15.6-5.1-5.1-1-10-1.5-14.7-1.5s-3.2,0-4.6.2c-1.5.1-2.9.2-4.4.4.3,1.5.9,2.7,1.8,3.7s1.8,1.8,2.6,2.4c1,.7,2.2,1.2,3.4,1.6,2.3.7,4.8,1.6,7.6,2.7,2.7,1.1,5.5,2.4,8.2,3.9,2.7,1.6,5.3,3.4,7.9,5.5,2.5,2.1,4.7,4.6,6.6,7.3,1.2-1,2.3-2.1,3.4-3.2,1.1-1.2,2.1-2.5,3.1-3.8h0Z"/>
    <path class="st3" d="M326,454.4c-2.5-.6-5-1.1-7.3-1.4s-4.8-.4-7.2-.4-4.7.1-7.1.4c-2.4.3-4.9.7-7.5,1.4,2.6-6.7,4.6-13.4,6.1-20.3s2.1-14,2.1-21.2-.3-8.8-.8-13.3c-.5-4.5-1.4-9-2.5-13.7,2,.6,4,1.1,5.9,1.6s3.9.9,5.9,1.2c2,.4,4,.6,6,.8,2,.2,4.2.3,6.4.3.2,5,.3,9.9.4,14.7s.2,9.8.2,14.7c3-.3,6-.6,8.9-1,2.9-.4,5.8-.8,8.8-1.3.4-5.6,1-11.2,1.8-16.9.8-5.6,2-11.3,3.4-17.1,1.7.7,3.4,1.4,5.1,1.9,1.6.5,3.3,1,5,1.3,1.7.4,3.4.6,5.2.8s3.8.2,5.8.2.9,0,1.3,0,.9,0,1.4,0c-2,4.2-3.7,8.5-5,12.8-1.4,4.3-2.3,8.7-2.9,13.1,1.6-.3,3.1-.7,4.7-1.1,1.6-.4,3.2-.8,4.8-1.3-.3,2.2-.6,4.4-.7,6.5s-.2,4.2-.2,6.4,0,4.4.2,6.5c.1,2.2.4,4.4.7,6.5-1.6,0-3.3-.1-4.8-.2s-3.1-.2-4.7-.4c.4,2.9.9,5.7,1.5,8.5.6,2.8,1.4,5.7,2.4,8.6-1.1,0-2.2-.2-3.2-.2s-2,0-3,0c-1.6,0-3.2,0-4.7.2s-3,.3-4.5.6-3,.6-4.4,1-3,.8-4.6,1.4c-.4-4-.6-7.9-.8-11.8s-.3-7.9-.3-11.9c-2.9-.8-5.8-1.6-8.7-2.5-2.9-.9-5.7-1.9-8.5-3,0,4.6-.1,9.2-.2,13.8s-.2,9.2-.4,13.9h0Z"/>
    <path class="st3" d="M411.1,384.3c-1,6.4-1.7,12.9-2.2,19.4s-.8,13.1-.8,19.8.1,10,.4,14.9.7,9.8,1.4,14.6c-1.3,0-2.5-.2-3.8-.2-1.2,0-2.4-.1-3.6-.1-2.9,0-5.7.2-8.5.5-2.8.3-5.8.8-8.9,1.5,1-5.4,1.8-10.9,2.3-16.5s.9-11.3.9-17-.2-9.9-.7-14.8-1.2-9.8-2.2-14.6c2.2-.3,4.3-.6,6.4-1.1,2.1-.4,4.1-1,6.2-1.6s4.2-1.3,6.3-2.1c2.1-.8,4.4-1.7,6.7-2.6h0Z"/>
    <path class="st3" d="M533.7,430.1c-.4,2.9-1,5.6-1.8,7.9-.8,2.3-1.8,4.4-3,6.2,0,1,0,2,0,3.1,0,1.1,0,2.1,0,3.2s0,2.1.1,3c0,1,.1,1.9.2,2.6l-10.6,1.6-1.9-3.5c-2.8,1.2-5.6,2-8.5,2.4s-5.6.7-8.2.7c-5.5,0-10.5-.8-15-2.3-4.6-1.6-8.6-3.9-12.1-7s-6.4-7-8.7-11.7-4-10.2-5-16.4c.7.2,1.5.5,2.2.7.8.2,1.6.4,2.4.5.5-6.2,2.2-11.7,4.9-16.4,2.7-4.7,6.2-8.6,10.5-11.8s9.3-5.5,14.9-7.2c5.6-1.6,11.7-2.4,18.2-2.4s6.1.1,9.5.5,7,.8,10.9,1.5c-.9,2.8-1.5,5.6-2,8.4-.4,2.8-.7,5.6-.7,8.4s.2,5.8.7,8.7c-1.8-1.4-3.6-2.5-5.4-3.4s-3.6-1.6-5.3-2.2-3.4-.9-5.1-1.1-3.2-.3-4.7-.3c-2.9,0-5.8.4-8.7,1.1-3,.8-5.8,1.9-8.4,3.4-2.6,1.5-5,3.3-7.1,5.5s-3.7,4.6-4.8,7.4c1.2-.2,2.5-.4,3.6-.7,1.1-.3,2.3-.6,3.4-.9-.2,1.4-.3,2.6-.3,3.8,0,3.1.5,5.7,1.6,8,1,2.3,2.5,4.1,4.3,5.6,1.8,1.5,4,2.6,6.5,3.3,2.5.7,5.2,1.1,8.1,1.1h1.5c.5,0,1,0,1.5,0-1.2-3.4-2.2-6.9-3-10.3s-1.5-7.2-2.1-11.1c1.5.3,2.9.5,4.3.6,1.4.1,2.8.2,4.2.2,3,0,5.9-.3,8.7-1,2.8-.6,5.7-1.6,8.7-2.8-1.5,5.8-2.4,11.4-2.9,16.9.8-.5,1.5-1.1,2.2-1.7s1.5-1.2,2.3-1.9h0Z"/>
    <path class="st3" d="M571.1,452.5c-2.5,0-5,0-7.5,0-2.5,0-4.9,0-7.3.1-2.4,0-4.8.3-7.2.6-2.4.3-4.8.8-7.1,1.4,2.1-7.1,3.7-14.1,4.8-21.1,1.1-7,1.6-14,1.6-21.1s-.1-6.4-.3-9.6c-.2-3.2-.6-6.4-1.1-9.6l-7.1-.9c1.1-.3,2.2-.7,3.3-1,1.1-.3,2.2-.6,3.3-.9-.2-.9-.3-1.7-.4-2.5s-.3-1.7-.5-2.6c1.8.5,3.7,1.1,5.5,1.6,1.8.5,3.7.9,5.5,1.2,5.9-1.2,11.8-2.2,17.7-2.8,5.9-.6,11.9-1,17.9-1s5.2,0,7.8.2,5.2.3,7.9.5c-1.5,5.6-2.2,11.4-2.2,17.4s0,4.4.3,6.5c-11.6-4.9-23.5-8.8-35.8-11.6-.3,2.7-.5,5.4-.7,8.1s-.3,5.4-.4,8.1c3.1-.7,6.2-1.2,9.3-1.6s6.2-.6,9.3-.6c-.7,2.9-1.1,5.7-1.1,8.5s0,2.3.2,3.4.3,2.3.5,3.4c-3-1.4-6-2.7-9-3.9-3.1-1.1-6.2-2.1-9.3-3,0,3.2,0,6.6.2,10s.4,7,.7,10.5c11.8-1.6,23.8-4.5,36.1-8.8-.4,2.3-.7,4.6-.9,6.8s-.3,4.5-.3,6.8,0,4.1.3,6.2.5,4.1.9,6.2c-5.8-1.5-11.6-2.7-17.3-3.8s-11.7-1.9-17.6-2.5c0,.2,0,.4,0,.6,0,.2,0,.4.1.6h0Z"/>
    <path class="st3" d="M695,431.1c-1.4.8-2.8,1.5-4.3,2.2-1.4.7-2.9,1.4-4.4,2,1.6,3.2,3.3,6.3,5,9.2,1.8,3,3.7,5.9,5.7,8.7-5.1,0-10,.5-14.6,1.5s-9.1,2.6-13.6,4.9c.2-.8.4-1.7.5-2.6s.1-1.9.1-3c0-1.8-.2-3.9-.5-6.1s-.9-4.5-1.5-7c-1.6.2-3.2.4-4.8.5-1.6.1-3.2.2-4.8.2-2.7,0-5.3-.2-7.8-.6-2.5-.4-5-1.1-7.4-2-.5,2.9-1.1,5.7-1.6,8.6s-1,5.9-1.4,9c-1.6-.9-3.3-1.6-5.2-2.3-1.7-.6-3.6-1.1-5.9-1.6-2.3-.5-4.8-.7-7.6-.7s-4.5.2-7,.6-5,1.1-7.6,2.1c2.4-2.6,4.6-5.2,6.7-7.9,2.1-2.6,3.9-5.2,5.6-7.7,1.7-2.5,3.2-4.8,4.5-6.9s2.4-4,3.3-5.5c-.9-1.2-1.7-2.5-2.5-4-.8-1.4-1.5-2.9-2.2-4.5,1.2.7,2.5,1.3,3.7,1.9,1.2.6,2.5,1.1,3.7,1.6h0c1.7-3.5,3.4-6.8,5.2-10,1.8-3.2,3.8-6.4,5.8-9.4-.4-1-1-2.2-1.6-3.5s-1.3-2.7-2-4.1-1.5-2.9-2.3-4.3c-.8-1.4-1.6-2.8-2.4-4.1,3,.9,6.1,1.5,9.3,2.1,3.2.5,6.4.9,9.8,1,1.8-1.7,3.6-3.3,5.5-4.7s3.9-2.7,6-3.9c-.7,1.4-1.5,2.8-2.2,4.2-.7,1.4-1.4,2.9-2.1,4.3,1.8,0,3.6-.3,5.4-.5,1.8-.2,3.6-.5,5.4-.9,1.3,5.2,2.8,10.4,4.3,15.4s3.3,9.9,5.2,14.8c1.6-.9,3.1-1.8,4.5-2.9,1.5-1,3-2.1,4.5-3.2,1,3.6,2,7,3.2,10.2s2.6,6.1,4.1,8.9h0ZM661.8,424.9c-2.7-6.5-6-13.3-9.8-20.2-1.2,3.3-2.3,6.8-3.3,10.3-1,3.5-2.1,7.2-3,11,.8,0,1.6.1,2.4.1.8,0,1.6,0,2.4,0,1.9,0,3.8,0,5.7-.3,1.9-.2,3.8-.5,5.7-.9Z"/>
    <path class="st3" d="M781.8,449.7c-4.9.4-9.6,1.3-14.2,2.7-4.6,1.4-9.1,3.3-13.5,5.6-.3-3.9-1-7.7-1.9-11.4-1-3.7-2.2-7.3-3.7-10.9-3,.9-6.2,1.3-9.4,1.3s-3.1,0-4.6-.3c0,3,.1,5.9.2,8.9,0,3,.2,5.9.4,8.9-.9,0-1.7-.2-2.6-.2-.9,0-1.8-.1-2.8-.1-3.5,0-7.2.4-11.1,1.2s-8,2-12.3,3.5c1.7-5,3.2-10.1,4.4-15.2,1.2-5.1,2.2-10.2,3-15.4-2.4-1.6-4.5-3.3-6.1-5s-2.9-3-3.7-4.1c1.7.5,3.4,1,5.2,1.4,1.8.4,3.6.8,5.4,1.2.2-2.3.4-4.6.5-6.8.1-2.3.2-4.6.2-6.9v-2.7c-1.9.6-3.7,1.3-5.5,2s-3.6,1.5-5.3,2.3c.5-1.7.8-3.4,1.1-5,.2-1.6.4-3.2.4-4.8,0-2.7-.3-5.2-1-7.7s-1.6-4.8-2.8-7.1c7.1-1.1,13.5-1.9,19.2-2.2s10.7-.6,15.2-.6,4.4,0,7.1.2c2.7.1,5.4.4,8.2.7s5.6.9,8.3,1.7,5.3,1.8,7.6,3,4.3,2.9,5.9,4.8,2.7,4.2,3.3,7v.2c.8-.5,1.6-.9,2.3-1.5s1.5-1.1,2.3-1.7c-.4,2.8-1.1,5.5-2.1,8.3-1,2.8-2.1,5.4-3.6,8-1.4,2.6-3.1,5-4.9,7.3s-3.9,4.5-6.1,6.4c4.7,8.3,10.4,15.9,17.2,22.8h0ZM747.2,400c-1.6,0-3.4,0-5.4.2-2,.1-4.2.4-6.8.7-.2,3.7-.3,7.3-.4,11s-.1,7.3-.1,10.9c2.4-.3,4.6-.8,6.7-1.6s3.9-1.7,5.5-3c1.6-1.3,2.9-2.9,4-4.8s1.7-4.1,2-6.7c1.3-.2,2.6-.5,3.9-.7,1.3-.2,2.6-.5,4-.7h0c-.7-.9-1.4-1.7-2.2-2.4-.8-.7-1.7-1.2-2.7-1.6-1-.4-2.2-.8-3.6-1s-3-.3-5-.3h0Z"/>
  </g>
  <path class="st5" d="M22.9,493.8c252.9-3.9,509.6-4,762.5-1l24.6.4v.2l-24.6.4c-252.7,3.1-510.2,4.2-762.5,0h0Z"/>
  <g>
    <path class="st4" d="M123.5,704.5c0,2.5-.6,4.8-1.6,6.8-1,2-2.4,3.8-4.1,5.3-1.7,1.5-3.8,2.8-6.1,3.9s-4.9,2-7.6,2.6c-2.7.7-5.6,1.2-8.6,1.5-3,.3-6.1.5-9.1.5s-4.8,0-7.2-.3-4.7-.4-6.9-.8-4.4-.7-6.5-1.2c-2.1-.5-4-1-5.8-1.6l1.1-2.1c-1,.3-2.1.6-3.2,1-1.1.3-2.1.7-3.2,1.1,1.8-5.5,3.4-11,4.8-16.5,1.3-5.5,2.3-11.1,3-16.8-2.2-1.4-4.2-2.9-5.9-4.4s-3.2-3-4.3-4.5c1.7.5,3.4,1,5.3,1.5,1.8.4,3.7.8,5.6,1.2.2-1.9.3-3.8.3-5.6,0-1.8.1-3.7.1-5.5v-1.5c-1.9.6-3.7,1.3-5.5,2s-3.6,1.5-5.3,2.3c.5-1.7.8-3.4,1.1-5,.2-1.6.4-3.2.4-4.8,0-2.7-.3-5.2-1-7.7s-1.6-4.8-2.8-7.1c3.5-.5,6.8-1,9.7-1.3,2.9-.3,5.6-.6,8.1-.8,2.5-.2,4.9-.4,7.1-.5s4.5-.1,6.7-.1,4,0,6.4.1,4.9.3,7.4.6,5.1.8,7.7,1.3c2.6.6,5,1.4,7.2,2.4,2.3,1,4.3,2.3,6.1,3.7,1.8,1.5,3.2,3.3,4.2,5.3.6-.4,1.3-.8,2-1.3s1.4-1,2-1.5c.2.8.2,1.7.3,2.5s0,1.6,0,2.4c0,2.4-.3,4.7-.8,7-.6,2.3-1.4,4.5-2.4,6.6s-2.3,4.1-3.7,6c-1.4,1.9-3,3.7-4.8,5.3,1.7,1,3.1,2.1,4.2,3.3,1.1,1.2,2.1,2.5,2.8,3.8.8,1.3,1.3,2.6,1.7,3.9.4,1.2.7,2.4.8,3.4s.3,1.8.3,2.5c0,.6,0,1,0,1.1h0ZM83.2,664.6c0,3-.2,6-.2,9s0,6-.2,9c2.2-.3,4.2-.9,5.9-1.6s3.3-1.8,4.6-3c1.3-1.3,2.4-2.9,3.2-4.7.8-1.9,1.4-4.1,1.7-6.7l4.1-.7c-1.3-.8-2.8-1.3-4.4-1.7-1.6-.4-3.4-.5-5.3-.5s-1.5,0-2.1,0-1.2,0-1.9.2c-.7,0-1.4.2-2.2.3s-1.9.3-3.1.5h-.1,0ZM89.4,696.4c-2.3,0-4.4-.2-6.5-.6,0,1.6,0,3.2,0,4.8,0,1.6,0,3.1.1,4.7,1.6.5,3,.8,4.4,1,1.4.2,2.8.2,4,.2s3.3-.2,5-.6,3.4-1,4.9-1.9c1.5-.9,2.7-2,3.7-3.4s1.4-3.2,1.4-5.2,0-1.1-.1-1.7-.2-1.2-.4-1.8c-2.6,1.4-5.3,2.5-8.1,3.3s-5.6,1.2-8.5,1.2h0Z"/>
    <path class="st4" d="M209.9,652.4c0,10.7-1,20.2-3,28.6-2,8.3-4.9,15.4-8.9,21.1-3.9,5.7-8.8,10.1-14.6,13.1s-12.5,4.5-20.1,4.5-3.9-.2-5.9-.4-4.2-.7-6.4-1.3c.4-.3.9-.6,1.4-.9.4-.3.9-.7,1.5-1.1s1.1-.9,1.7-1.5c-3.6-1.2-6.7-3.2-9.5-6-2.7-2.8-5-6.2-6.9-10.3-1.9-4-3.2-8.6-4.2-13.8-.9-5.1-1.4-10.6-1.4-16.5s0-2.6,0-3.8.1-2.3.2-3.4.2-2.3.4-3.6.4-2.6.6-4.2c3.1.3,6.3.4,9.6.3,1.4,0,2.9-.1,4.5-.2s3.2-.3,4.9-.6c1.7-.3,3.4-.6,5.1-1.1,1.7-.4,3.4-1,5-1.6-1.3,3.2-2.4,6.1-3.4,8.8-.9,2.7-1.7,5.2-2.4,7.6-.6,2.4-1.1,4.7-1.4,6.9-.3,2.2-.5,4.5-.5,6.7,0,4.4.6,8.5,1.7,12.2s2.9,7.1,5.3,10c.1-.5.3-1.1.4-1.6s.2-1.2.3-1.8c.8.2,1.6.4,2.4.5s1.6.1,2.3.1c2.2,0,4.2-.4,5.9-1.2s3.3-1.9,4.6-3.3,2.4-3,3.3-4.8c.9-1.8,1.6-3.7,2.2-5.7.6-2,1-4,1.2-6,.2-2,.4-3.9.4-5.7s-.2-3.3-.6-5.2-.9-4-1.5-6.2-1.3-4.3-2.1-6.5-1.7-4.3-2.6-6.4c1.2.4,2.6.8,4.1,1.1s3.1.6,4.8.8c1.7.2,3.4.4,5.1.5s3.5.2,5.2.2,4.3-.1,6.2-.4,3.6-.7,5-1.3v3.3h0Z"/>
    <path class="st4" d="M289.9,685.1c0,.7.1,1.3.2,2,0,.6,0,1.3,0,1.9,0,3.2-.5,6.2-1.5,9-1,2.8-2.4,5.4-4.1,7.8s-3.8,4.5-6.2,6.3c-2.4,1.9-5,3.4-7.7,4.7s-5.7,2.3-8.7,3c-3,.7-6.1,1-9.2,1s-5.6-.1-8.3-.4-5.2-.4-7.6-.4-3.6.1-5.2.4c-1.6.3-3.1.8-4.5,1.6-1.1-4.2-2.3-8-3.6-11.4-1.3-3.4-2.4-6.3-3.5-8.7-1.2-2.8-2.5-5.3-3.8-7.6,3.6,1.9,7.3,3.4,10.9,4.5s7.1,2,10.4,2.5,6.3,1,9,1.2c2.7.2,5,.2,6.8.2s4.1-.1,6.1-.4,4.1-.6,6.2-1.2c-.5-.7-1.1-1.3-1.6-1.9s-1.1-1-1.5-1.3c-.5-.4-1.1-.7-1.6-1-.9-.4-2.1-.8-3.6-1.3s-3.2-.9-5.1-1.3-3.8-1-5.9-1.6c-2.1-.6-4.2-1.2-6.2-2s-4-1.6-5.9-2.6-3.6-2.1-5-3.3c-1.2-1-2.1-2.1-2.9-3.3-.8-1.2-1.4-2.4-1.8-3.6s-.8-2.5-1-3.7c-.2-1.2-.3-2.4-.3-3.6-1.1.4-2,.8-2.9,1.2-.9.4-1.6.7-2.2,1l-1.8.9c1.1-3.3,2.6-6.2,4.6-8.8s4.2-4.7,6.7-6.6c2.5-1.9,5.1-3.4,7.9-4.7s5.6-2.3,8.3-3.2c6.4-1.9,13.4-3,20.9-3.3,2.3,0,4.8,0,7.4-.3,2.3-.2,4.9-.4,7.8-.7s6-.8,9.2-1.4c-1,1.5-1.8,3.1-2.4,4.8s-1.1,3.4-1.4,5.2c-.3,1.7-.6,3.5-.7,5.2-.1,1.7-.2,3.2-.2,4.7s0,1.8,0,2.6,0,1.4.1,2c0,.6.1,1.2.2,1.7-5.4-2.4-10.6-4.1-15.6-5.1s-10-1.5-14.7-1.5-3.2,0-4.6.2-2.9.2-4.4.4c.3,1.5.9,2.7,1.8,3.7s1.8,1.8,2.6,2.4c1,.7,2.2,1.2,3.4,1.7,2.3.7,4.8,1.6,7.6,2.7,2.7,1.1,5.5,2.4,8.2,3.9s5.3,3.4,7.9,5.5,4.7,4.6,6.6,7.3c1.2-1,2.3-2.1,3.4-3.2,1.1-1.2,2.1-2.5,3.1-3.8h0Z"/>
    <path class="st4" d="M325.2,718.2c-2.5-.6-5-1.1-7.3-1.3s-4.8-.4-7.2-.4-4.7.1-7.1.4c-2.4.3-4.9.7-7.5,1.3,2.6-6.7,4.6-13.4,6.1-20.3s2.1-14,2.1-21.2-.3-8.8-.8-13.3c-.5-4.5-1.4-9-2.5-13.7,2,.6,4,1.1,5.9,1.6,1.9.5,3.9.9,5.9,1.2,2,.3,4,.6,6,.8,2,.2,4.2.3,6.4.3.2,5,.3,9.9.4,14.7s.2,9.8.2,14.7c3-.3,6-.6,8.9-1,2.9-.4,5.8-.8,8.8-1.3.4-5.6,1-11.2,1.8-16.9.8-5.6,2-11.3,3.4-17.1,1.7.7,3.4,1.4,5.1,1.9,1.6.5,3.3,1,5,1.3,1.7.3,3.4.6,5.2.8s3.8.2,5.8.2.9,0,1.3,0,.9,0,1.4,0c-2,4.2-3.7,8.5-5,12.8-1.4,4.3-2.3,8.7-2.9,13.1,1.6-.3,3.1-.7,4.7-1.1,1.6-.4,3.2-.8,4.8-1.3-.3,2.2-.6,4.4-.7,6.5s-.2,4.2-.2,6.4,0,4.3.2,6.5c.1,2.2.4,4.4.7,6.5-1.6,0-3.3-.1-4.8-.2s-3.1-.2-4.7-.4c.4,2.8.9,5.7,1.5,8.5.6,2.8,1.4,5.7,2.4,8.6-1.1,0-2.2-.2-3.2-.2s-2,0-3,0c-1.6,0-3.2,0-4.7.2s-3,.3-4.5.6-3,.6-4.4,1-3,.8-4.6,1.3c-.4-4-.6-7.9-.8-11.8s-.3-7.9-.3-11.9c-2.9-.8-5.8-1.6-8.7-2.5-2.9-.9-5.7-1.9-8.5-3,0,4.6-.1,9.2-.2,13.8,0,4.6-.2,9.2-.4,13.9h0Z"/>
    <path class="st4" d="M410.3,648c-1,6.4-1.7,12.9-2.2,19.4s-.8,13.1-.8,19.8.1,10,.4,14.9.7,9.8,1.4,14.6c-1.3,0-2.5-.2-3.8-.2-1.2,0-2.4-.1-3.6-.1-2.9,0-5.7.2-8.5.5-2.8.3-5.8.8-8.9,1.5,1-5.4,1.8-10.9,2.3-16.5s.9-11.3.9-17-.2-9.9-.7-14.8-1.2-9.8-2.2-14.6c2.2-.3,4.3-.6,6.4-1.1,2.1-.4,4.1-1,6.2-1.6s4.2-1.3,6.3-2.1c2.1-.8,4.4-1.7,6.7-2.6h0Z"/>
    <path class="st4" d="M532.9,693.8c-.4,2.9-1,5.6-1.8,7.9-.8,2.3-1.8,4.4-3,6.2,0,1,0,2,0,3.1,0,1.1,0,2.1,0,3.2s0,2.1.1,3,.1,1.8.2,2.6l-10.6,1.6-1.9-3.5c-2.8,1.2-5.6,2-8.5,2.4s-5.6.7-8.2.7c-5.5,0-10.5-.8-15-2.3-4.6-1.6-8.6-3.9-12.1-7s-6.4-7-8.7-11.7c-2.3-4.7-4-10.2-5-16.4.7.2,1.5.5,2.2.7.8.2,1.6.4,2.4.5.5-6.2,2.2-11.7,4.9-16.4,2.7-4.7,6.2-8.6,10.5-11.8s9.3-5.5,14.9-7.2c5.6-1.6,11.7-2.4,18.2-2.4s6.1.2,9.5.5,7,.8,10.9,1.5c-.9,2.8-1.5,5.6-2,8.4-.4,2.8-.7,5.6-.7,8.4s.2,5.8.7,8.7c-1.8-1.3-3.6-2.5-5.4-3.4s-3.6-1.6-5.3-2.2-3.4-.9-5.1-1.2-3.2-.3-4.7-.3c-2.9,0-5.8.4-8.7,1.2-3,.8-5.8,1.9-8.4,3.4-2.6,1.5-5,3.3-7.1,5.5s-3.7,4.6-4.8,7.4c1.2-.2,2.5-.4,3.6-.7,1.1-.3,2.3-.6,3.4-.9-.2,1.3-.3,2.6-.3,3.8,0,3.1.5,5.7,1.6,8,1,2.3,2.5,4.1,4.3,5.6,1.8,1.5,4,2.6,6.5,3.3,2.5.7,5.2,1.1,8.1,1.1h1.5c.5,0,1,0,1.5,0-1.2-3.4-2.2-6.9-3-10.3s-1.5-7.2-2.1-11.1c1.5.3,2.9.5,4.3.6,1.4.2,2.8.2,4.2.2,3,0,5.9-.3,8.7-1s5.7-1.6,8.7-2.8c-1.5,5.8-2.4,11.4-2.9,16.9.8-.5,1.5-1.1,2.2-1.7s1.5-1.2,2.3-1.9h0Z"/>
    <path class="st4" d="M570.3,716.3c-2.5,0-5,0-7.5,0-2.5,0-4.9,0-7.3.1-2.4,0-4.8.3-7.2.6-2.4.3-4.8.8-7.1,1.4,2.1-7.1,3.7-14.1,4.8-21.1,1.1-7,1.6-14,1.6-21.1s-.1-6.4-.3-9.6c-.2-3.2-.6-6.4-1.1-9.6l-7.1-.9c1.1-.3,2.2-.7,3.3-1,1.1-.3,2.2-.6,3.3-.9-.2-.9-.3-1.7-.4-2.5-.1-.8-.3-1.7-.5-2.6,1.8.5,3.7,1.1,5.5,1.6,1.8.5,3.7.9,5.5,1.2,5.9-1.2,11.8-2.2,17.7-2.8s11.9-1,17.9-1,5.2,0,7.8.2,5.2.3,7.9.5c-1.5,5.6-2.2,11.4-2.2,17.4s0,4.4.3,6.5c-11.6-4.9-23.5-8.8-35.8-11.6-.3,2.7-.5,5.4-.7,8.1s-.3,5.4-.4,8.1c3.1-.7,6.2-1.2,9.3-1.6s6.2-.6,9.3-.6c-.7,2.9-1.1,5.7-1.1,8.5s0,2.3.2,3.4.3,2.3.5,3.4c-3-1.4-6-2.7-9-3.9-3.1-1.1-6.2-2.1-9.3-3,0,3.2,0,6.6.2,10,.1,3.5.4,7,.7,10.5,11.8-1.6,23.8-4.5,36.1-8.8-.4,2.3-.7,4.6-.9,6.8s-.3,4.5-.3,6.8,0,4.2.3,6.2.5,4.1.9,6.2c-5.8-1.5-11.6-2.7-17.3-3.8s-11.7-1.9-17.6-2.5c0,.2,0,.4,0,.6,0,.2,0,.4.1.6h0Z"/>
    <path class="st4" d="M694.1,694.8c-1.4.8-2.8,1.5-4.3,2.2-1.4.7-2.9,1.4-4.4,2,1.6,3.2,3.3,6.3,5,9.2,1.8,3,3.7,5.8,5.7,8.7-5.1,0-10,.5-14.6,1.5s-9.1,2.7-13.6,4.9c.2-.8.4-1.7.5-2.6s.1-1.9.1-3c0-1.8-.2-3.9-.5-6.1s-.9-4.5-1.5-7c-1.6.2-3.2.4-4.8.5-1.6.1-3.2.2-4.8.2-2.7,0-5.3-.2-7.8-.6s-5-1.1-7.4-2c-.5,2.8-1.1,5.7-1.6,8.6-.5,2.9-1,5.9-1.4,9-1.6-.9-3.3-1.6-5.2-2.3-1.7-.6-3.6-1.1-5.9-1.6-2.3-.5-4.8-.7-7.6-.7s-4.5.2-7,.6-5,1.1-7.6,2.1c2.4-2.6,4.6-5.2,6.7-7.9,2.1-2.7,3.9-5.2,5.6-7.7,1.7-2.5,3.2-4.8,4.5-6.9,1.3-2.1,2.4-4,3.3-5.5-.9-1.2-1.7-2.5-2.5-4-.8-1.4-1.5-2.9-2.2-4.5,1.2.7,2.5,1.3,3.7,1.9,1.2.6,2.5,1.1,3.7,1.6h0c1.7-3.5,3.4-6.8,5.2-10.1,1.8-3.2,3.8-6.4,5.8-9.4-.4-1-1-2.2-1.6-3.5s-1.3-2.7-2-4.1-1.5-2.9-2.3-4.3c-.8-1.4-1.6-2.8-2.4-4.1,3,.9,6.1,1.5,9.3,2.1,3.2.5,6.4.9,9.8,1,1.8-1.7,3.6-3.3,5.5-4.7s3.9-2.7,6-3.9c-.7,1.4-1.5,2.8-2.2,4.2-.7,1.4-1.4,2.8-2.1,4.3,1.8,0,3.6-.3,5.4-.5,1.8-.2,3.6-.5,5.4-.9,1.3,5.2,2.8,10.4,4.3,15.4s3.3,9.9,5.2,14.8c1.6-.9,3.1-1.8,4.5-2.9,1.5-1,3-2.1,4.5-3.2,1,3.6,2,7,3.2,10.2s2.6,6.1,4.1,8.9h0ZM661,688.6c-2.7-6.5-6-13.3-9.8-20.2-1.2,3.3-2.3,6.8-3.3,10.3-1,3.5-2.1,7.2-3,11,.8,0,1.6.1,2.4.1.8,0,1.6,0,2.4,0,1.9,0,3.8,0,5.7-.3,1.9-.2,3.8-.5,5.7-.9Z"/>
    <path class="st4" d="M781,713.4c-4.9.4-9.6,1.3-14.2,2.7-4.6,1.4-9.1,3.3-13.5,5.7-.3-3.9-1-7.7-1.9-11.4s-2.2-7.3-3.7-10.8c-3,.9-6.2,1.3-9.4,1.3s-3.1,0-4.6-.3c0,3,.1,5.9.2,8.9,0,3,.2,5.9.4,8.9-.9,0-1.7-.2-2.6-.2-.9,0-1.8-.1-2.8-.1-3.5,0-7.2.4-11.1,1.2s-8,2-12.3,3.5c1.7-5,3.2-10.1,4.4-15.2s2.2-10.2,3-15.4c-2.4-1.7-4.5-3.3-6.1-5s-2.9-3-3.7-4.1c1.7.5,3.4,1,5.2,1.4s3.6.8,5.4,1.2c.2-2.3.4-4.6.5-6.8.1-2.3.2-4.6.2-6.9v-2.7c-1.9.6-3.7,1.3-5.5,2s-3.6,1.5-5.3,2.3c.5-1.7.8-3.4,1.1-5,.2-1.6.4-3.2.4-4.8,0-2.7-.3-5.2-1-7.7s-1.6-4.8-2.8-7.1c7.1-1.1,13.5-1.8,19.2-2.2s10.7-.6,15.2-.6,4.4,0,7.1.2,5.4.3,8.2.7,5.6.9,8.3,1.7,5.3,1.8,7.6,3,4.3,2.9,5.9,4.8c1.6,1.9,2.7,4.2,3.3,7v.2c.8-.5,1.6-.9,2.3-1.5s1.5-1.1,2.3-1.7c-.4,2.8-1.1,5.5-2.1,8.3-1,2.8-2.1,5.4-3.6,8-1.4,2.6-3.1,5-4.9,7.3s-3.9,4.5-6.1,6.4c4.7,8.3,10.4,15.9,17.2,22.8h0ZM746.4,663.7c-1.6,0-3.4,0-5.4.2-2,.2-4.2.4-6.8.7-.2,3.7-.3,7.3-.4,11s-.1,7.3-.1,10.9c2.4-.3,4.6-.8,6.7-1.6s3.9-1.7,5.5-3c1.6-1.3,2.9-2.9,4-4.8s1.7-4.1,2-6.7c1.3-.2,2.6-.5,3.9-.7,1.3-.2,2.6-.5,4-.7h0c-.7-1-1.4-1.7-2.2-2.4-.8-.7-1.7-1.2-2.7-1.7-1-.4-2.2-.8-3.6-1s-3-.3-5-.3h0Z"/>
  </g>
  <g>
    <line class="st0" x1="22.1" y1="757.6" x2="809.1" y2="757"/>
    <path d="M22.1,757.5c252.8-4.8,509.6-4.8,762.5-1.1l24.6.5v.3l-24.6.5c-219.8,3.8-444.3,4-664.1,1.7-15-.2-58.9-.8-73.8-1.1l-24.6-.5v-.3h0Z"/>
  </g>
</svg>