<?xml version="1.0" encoding="UTF-8"?>
<svg id="_レイヤー_1" xmlns="http://www.w3.org/2000/svg" version="1.1" viewBox="0 0 114.6 114.6">
  <!-- Generator: Adobe Illustrator 29.3.1, SVG Export Plug-In . SVG Version: 2.1.0 Build 151)  -->
  <defs>
    <style>
      .st0 {
        fill: #da1f20;
      }
    </style>
  </defs>
  <circle class="st0" cx="57.3" cy="57.3" r="57.3"/>
  <path d="M38.1,29.4h25c5.4.3,8.6,1.6,9.8,3.8,1.2,2.2,1.6,4.6,1.4,7.2-.2,2.6-2.1,5.8-5.7,9.8,5.6-.2,8.7,1.8,9.4,6v17.5c-.3,3.1-1.3,5.6-3.1,7.3-1.8,1.7-3.9,2.9-6.4,3.5-5.9,1.4-12,.8-18.3-1.8l4-10.1c5.7,1.8,9.2,2.2,10.6,1.3,1.4-.9,2-5.5,1.7-13.8h-15.1v9.9c-1.4,10.2-6.2,14.8-14.5,13.9v-10.1c2.5,0,3.5-2.1,3.1-6.3v-6.9h-3.2v-10.2s4.1,0,4.1,0v-9.5h-4.2l1.4-11.4h0ZM51.3,40.8v9l5.2-1.1c3.6-2,5.3-4.6,5-7.8,0,0-10.1,0-10.1,0Z"/>
</svg>