<?xml version="1.0" encoding="UTF-8"?>
<svg id="_レイヤー_1" xmlns="http://www.w3.org/2000/svg" version="1.1" viewBox="0 0 536.2 368.7">
  <!-- Generator: Adobe Illustrator 29.3.1, SVG Export Plug-In . SVG Version: 2.1.0 Build 151)  -->
  <defs>
    <style>
      .st0 {
        fill: #da1f20;
      }
    </style>
  </defs>
  <circle class="st0" cx="263.6" cy="187" r="161"/>
  <g>
    <path d="M18.6,155h28.6c6.1.3,9.9,1.8,11.2,4.4s1.8,5.3,1.6,8.3c-.2,2.9-2.4,6.7-6.6,11.2,6.4-.2,10,2.1,10.7,6.9v20c-.3,3.6-1.5,6.4-3.5,8.3s-4.4,3.3-7.3,4c-6.7,1.6-13.7.9-20.9-2.1l4.6-11.5c6.5,2.1,10.5,2.6,12.1,1.5s2.3-6.3,2-15.9h-17.4v11.4c-1.6,11.7-7.2,17-16.6,15.9v-11.6c2.8,0,4-2.4,3.6-7.2v-7.9h-3.7v-11.7h4.7v-10.9h-4.9l1.6-13h.2ZM33.8,168v10.3l5.9-1.3c4.2-2.2,6.1-5.2,5.7-9h-11.6Z"/>
    <path d="M83.9,154.2c-1.7,16.1-2,26.9-.7,32.4,1.3,5.5,3.3,9.8,6.1,13,2.8,3.2,9.1,3.9,18.9,2.3v-47l13.3.8v60.1l-13.3,1.3v-7.6l-2.4,8.3-2.9.6c-8.6.1-15.1-1.1-19.5-3.6s-8-7.8-10.8-15.6c-2.8-7.9-4-19.2-3.5-34.1l.8-8.5,14.1-2.4h0Z"/>
    <path d="M128.2,154.9h34.1c3.7.9,6.1,2.9,7.2,6.1,1.1,3.2,1.6,6,1.6,8.4l-12,2.4c0-2.9-2.7-4.1-8.1-3.7h-9.5l28.9,28.3c2.1,2.8,2.4,7.4.8,13.9-1.6,4.2-5.5,6.5-11.8,7.1h-23.2c-2.7-.9-4.8-2.6-6.4-5.2s-2.8-5.6-3.6-9.4l12.6-4.3c.3,3.5,1.7,5.2,4.2,5.1h12.2c1.9-.4,1.6-1.7-.9-4l-26.8-26.3,6.6-5.2h-8.4l2.6-13.3h0Z"/>
    <path d="M177.4,155.2h13.9v21.3h20.2v-21.1h13.9v21.5h2.4l1.1,12.6h-3.5v20.2c-.9,2.8-2.1,4.6-3.4,5.5-1.4.9-3.5,1.6-6.4,2.1s-5.9.7-8.8.7v-12.1c2.7-.2,4.5-1.4,5.1-3.5v-12.8h-16.8l-3.7-5.9v32.8l-13.8,2.3v-63.7h-.2Z"/>
    <path d="M233.5,155h25l-1.8,13.2h-4v36.5h5.1l-.7,12.8h-25l1.2-12.9h5.4v-33.1l5.8-3.3h-12.4l1.3-13.2h0Z"/>
    <path d="M294.4,155.3h48.3l-2.3,13.8h-33v29.1c-.3,4.2,2,5.9,6.9,5.4h16.4v-10.8h-11.1v-13h24.6v41.1l-13.4,2.6v-10.9l-5.1,4.8h-19.7c-4.4-.6-7.6-2.3-9.5-5s-2.9-6.7-2.9-11.8v-27.4l8.1-4h-12l4.7-13.8h0Z"/>
    <path d="M352,154.9h44.2l-3.7,13.9h-22.3v6.9h24.5l-2.2,12.5h-22.6c-.5,6.6,0,10.9,1.2,13.1,1.3,2.1,3.4,3.2,6.4,3.2h16.8l-2.2,13c-13.5.3-21.3-.1-23.5-1.3s-4.4-3-6.8-5.7c-2.3-2.6-3.8-6.5-4.4-11.7v-10.7h-7.6l1.9-12.5h6.2v-7.1h-8.1l2.2-13.6h0Z"/>
    <path d="M425.2,150.4l11.3,4.3-1.3,4.4h18.2l-1.9,13.6h-9.9l15.7,42.2-12.2,4.2-16.2-43.1-18,42.8-12.4-3.8,17.8-42.4h-13l1-13.4h17.2l3.6-8.7h0ZM431.1,197.2l7,7.7-13,13-7.1-7.6,13-13.1h.1Z"/>
    <path d="M462.9,155h39.6c2.8.3,4.7,2.1,5.7,5.4v18.4c-1,4.2-2.3,7.1-3.9,8.6-1.7,1.4-4.7,3.1-9,5l3.6,5.8c2.7,4.2,6.5,6.7,11.4,7.3l-1.1,14.1-7.4-1.4c-4.8-1-9.9-6-15.2-15.1l-2.9-5.5-7.2,3.4v16.4h-12.9v-12.2l-5-10.8,5-3.1v-19.3l6.4-3.5h-9.9l2.9-13.6h-.1ZM476.5,168.6v17.7l13.7-5.4c3.3-1.2,5-3.2,5-5.9v-6.3h-18.7Z"/>
  </g>
</svg>